<svg height="512pt" viewBox="0 0 512 512" width="512pt" xmlns="http://www.w3.org/2000/svg"><path d="m416 512h-320c-53.023438 0-96-42.976562-96-96v-320c0-53.023438 42.976562-96 96-96h320c53.023438 0 96 42.976562 96 96v320c0 53.023438-42.976562 96-96 96zm0 0" fill="#fff9dd"/><path d="m221.328125 128c-16.191406 0-29.328125 13.136719-29.328125 29.328125v144c0 16.207031 13.136719 29.328125 29.328125 29.328125h122.671875c16.207031 0 29.328125-13.136719 29.328125-29.328125v-141.328125c0-17.679688-14.320313-32-32-32zm101.34375 154.671875h-80c-4.414063 0-8-3.582031-8-8 0-4.414063 3.585937-8 8-8h80c4.417969 0 8 3.585937 8 8 0 4.417969-3.582031 8-8 8zm0-32h-80c-4.414063 0-8-3.582031-8-8 0-4.414063 3.585937-8 8-8h80c4.417969 0 8 3.585937 8 8 0 4.417969-3.582031 8-8 8zm0-32h-80c-4.414063 0-8-3.582031-8-8 0-4.414063 3.585937-8 8-8h80c4.417969 0 8 3.585937 8 8 0 4.417969-3.582031 8-8 8zm0 0" fill="#ffd200"/><path d="m221.328125 346.671875c-25.007813 0-45.328125-20.335937-45.328125-45.328125v-144c0-.910156.222656-1.757812.273438-2.671875h-8.273438c-16.175781 0-29.328125 13.152344-29.328125 29.328125v170.671875c0 16.175781 13.152344 29.328125 29.328125 29.328125h128c16.175781 0 29.328125-13.152344 29.328125-29.328125v-8zm0 0" fill="#ffe777"/></svg>