<svg height="512pt" viewBox="0 0 512 512" width="512pt" xmlns="http://www.w3.org/2000/svg"><path d="m416 512h-320c-53.023438 0-96-42.976562-96-96v-320c0-53.023438 42.976562-96 96-96h320c53.023438 0 96 42.976562 96 96v320c0 53.023438-42.976562 96-96 96zm0 0" fill="#e3f8fa"/><path d="m352 245.328125h-85.328125v-85.328125c0-5.886719-4.785156-10.671875-10.671875-10.671875s-10.671875 4.785156-10.671875 10.671875v85.328125h-85.328125c-5.886719 0-10.671875 4.785156-10.671875 10.671875s4.785156 10.671875 10.671875 10.671875h85.328125v85.328125c0 5.886719 4.785156 10.671875 10.671875 10.671875s10.671875-4.785156 10.671875-10.671875v-85.328125h85.328125c5.886719 0 10.671875-4.785156 10.671875-10.671875s-4.785156-10.671875-10.671875-10.671875zm0 0" fill="#26c6da"/></svg>